<svg width="30" height="30" viewBox="0 0 30 30" fill="none" xmlns="http://www.w3.org/2000/svg">
<path fill-rule="evenodd" clip-rule="evenodd" d="M27.0266 4.84851C27.7299 5.55178 28.125 6.50561 28.125 7.50017V8.2033C28.125 8.26546 28.1003 8.32507 28.0564 8.36903C28.0124 8.41298 27.9528 8.43767 27.8906 8.43767H2.10938C2.04721 8.43767 1.9876 8.41298 1.94365 8.36903C1.89969 8.32507 1.875 8.26546 1.875 8.2033V7.50017C1.875 6.50561 2.27009 5.55178 2.97335 4.84851C3.67661 4.14525 4.63044 3.75016 5.625 3.75016H6.5625V2.81266C6.56251 2.68575 6.58829 2.56017 6.63827 2.44352C6.68825 2.32687 6.76139 2.22158 6.85327 2.13404C6.94514 2.04649 7.05383 1.97851 7.17276 1.93421C7.29168 1.88991 7.41836 1.87022 7.54512 1.87633C8.04961 1.90153 8.4375 2.33453 8.4375 2.83903V3.75016H21.5625V2.81266C21.5625 2.68575 21.5883 2.56017 21.6383 2.44352C21.6882 2.32687 21.7614 2.22158 21.8533 2.13404C21.9451 2.04649 22.0538 1.97851 22.1728 1.93421C22.2917 1.88991 22.4184 1.87022 22.5451 1.87633C23.0496 1.90153 23.4375 2.33453 23.4375 2.83903V3.75016H24.375C25.3696 3.75016 26.3234 4.14525 27.0266 4.84851ZM2.97335 27.0268C2.27009 26.3236 1.875 25.3697 1.875 24.3752V10.4885C1.875 10.4418 1.89352 10.3971 1.92649 10.3642C1.95945 10.3312 2.00416 10.3127 2.05078 10.3127H27.9492C27.9958 10.3127 28.0405 10.3312 28.0735 10.3642C28.1065 10.3971 28.125 10.4418 28.125 10.4885V24.3752C28.125 25.3697 27.7299 26.3236 27.0266 27.0268C26.3234 27.7301 25.3696 28.1252 24.375 28.1252H5.625C4.63044 28.1252 3.67661 27.7301 2.97335 27.0268ZM22.8125 12.4247C22.5813 12.2702 22.3094 12.1877 22.0312 12.1877C21.6583 12.1877 21.3006 12.3358 21.0369 12.5996C20.7732 12.8633 20.625 13.221 20.625 13.5939C20.625 13.8721 20.7075 14.144 20.862 14.3752C21.0165 14.6065 21.2361 14.7867 21.4931 14.8931C21.7501 14.9996 22.0328 15.0274 22.3056 14.9732C22.5784 14.9189 22.829 14.785 23.0256 14.5883C23.2223 14.3916 23.3562 14.1411 23.4105 13.8683C23.4647 13.5955 23.4369 13.3127 23.3305 13.0558C23.224 12.7988 23.0438 12.5792 22.8125 12.4247ZM22.8125 17.1122C22.5813 16.9577 22.3094 16.8752 22.0312 16.8752C21.6583 16.8752 21.3006 17.0233 21.0369 17.2871C20.7732 17.5508 20.625 17.9085 20.625 18.2814C20.625 18.5596 20.7075 18.8315 20.862 19.0627C21.0165 19.294 21.2361 19.4742 21.4931 19.5806C21.7501 19.6871 22.0328 19.7149 22.3056 19.6607C22.5784 19.6064 22.829 19.4725 23.0256 19.2758C23.2223 19.0791 23.3562 18.8286 23.4105 18.5558C23.4647 18.283 23.4369 18.0002 23.3305 17.7433C23.224 17.4863 23.0438 17.2667 22.8125 17.1122ZM18.125 12.4247C17.8938 12.2702 17.6219 12.1877 17.3438 12.1877C16.9708 12.1877 16.6131 12.3358 16.3494 12.5996C16.0857 12.8633 15.9375 13.221 15.9375 13.5939C15.9375 13.8721 16.02 14.144 16.1745 14.3752C16.329 14.6065 16.5486 14.7867 16.8056 14.8931C17.0626 14.9996 17.3453 15.0274 17.6181 14.9732C17.8909 14.9189 18.1415 14.785 18.3381 14.5883C18.5348 14.3916 18.6687 14.1411 18.723 13.8683C18.7772 13.5955 18.7494 13.3127 18.643 13.0558C18.5365 12.7988 18.3563 12.5792 18.125 12.4247ZM18.125 17.1122C17.8938 16.9577 17.6219 16.8752 17.3438 16.8752C16.9708 16.8752 16.6131 17.0233 16.3494 17.2871C16.0857 17.5508 15.9375 17.9085 15.9375 18.2814C15.9375 18.5596 16.02 18.8315 16.1745 19.0627C16.329 19.294 16.5486 19.4742 16.8056 19.5806C17.0626 19.6871 17.3453 19.7149 17.6181 19.6607C17.8909 19.6064 18.1415 19.4725 18.3381 19.2758C18.5348 19.0791 18.6687 18.8286 18.723 18.5558C18.7772 18.283 18.7494 18.0002 18.643 17.7433C18.5365 17.4863 18.3563 17.2667 18.125 17.1122ZM18.125 21.7997C17.8938 21.6452 17.6219 21.5627 17.3438 21.5627C16.9708 21.5627 16.6131 21.7108 16.3494 21.9746C16.0857 22.2383 15.9375 22.596 15.9375 22.9689C15.9375 23.2471 16.02 23.519 16.1745 23.7502C16.329 23.9815 16.5486 24.1617 16.8056 24.2681C17.0626 24.3746 17.3453 24.4024 17.6181 24.3482C17.8909 24.2939 18.1415 24.16 18.3381 23.9633C18.5348 23.7666 18.6687 23.5161 18.723 23.2433C18.7772 22.9705 18.7494 22.6877 18.643 22.4308C18.5365 22.1738 18.3563 21.9542 18.125 21.7997ZM13.4375 17.1122C13.2063 16.9577 12.9344 16.8752 12.6562 16.8752C12.2833 16.8752 11.9256 17.0233 11.6619 17.2871C11.3982 17.5508 11.25 17.9085 11.25 18.2814C11.25 18.5596 11.3325 18.8315 11.487 19.0627C11.6415 19.294 11.8611 19.4742 12.1181 19.5806C12.3751 19.6871 12.6578 19.7149 12.9306 19.6607C13.2034 19.6064 13.454 19.4725 13.6506 19.2758C13.8473 19.0791 13.9812 18.8286 14.0355 18.5558C14.0897 18.283 14.0619 18.0002 13.9555 17.7433C13.849 17.4863 13.6688 17.2667 13.4375 17.1122ZM13.4375 21.7997C13.2063 21.6452 12.9344 21.5627 12.6562 21.5627C12.2833 21.5627 11.9256 21.7108 11.6619 21.9746C11.3982 22.2383 11.25 22.596 11.25 22.9689C11.25 23.2471 11.3325 23.519 11.487 23.7502C11.6415 23.9815 11.8611 24.1617 12.1181 24.2681C12.3751 24.3746 12.6578 24.4024 12.9306 24.3482C13.2034 24.2939 13.454 24.16 13.6506 23.9633C13.8473 23.7666 13.9812 23.5161 14.0355 23.2433C14.0897 22.9705 14.0619 22.6877 13.9555 22.4308C13.849 22.1738 13.6688 21.9542 13.4375 21.7997ZM8.75002 17.1122C8.51876 16.9577 8.24688 16.8752 7.96875 16.8752C7.59579 16.8752 7.2381 17.0233 6.97438 17.2871C6.71066 17.5508 6.5625 17.9085 6.5625 18.2814C6.5625 18.5596 6.64498 18.8315 6.7995 19.0627C6.95402 19.294 7.17364 19.4742 7.4306 19.5806C7.68756 19.6871 7.97031 19.7149 8.2431 19.6607C8.51588 19.6064 8.76645 19.4725 8.96312 19.2758C9.15979 19.0791 9.29372 18.8286 9.34798 18.5558C9.40224 18.283 9.37439 18.0002 9.26796 17.7433C9.16152 17.4863 8.98128 17.2667 8.75002 17.1122ZM8.75002 21.7997C8.51876 21.6452 8.24688 21.5627 7.96875 21.5627C7.59579 21.5627 7.2381 21.7108 6.97438 21.9746C6.71066 22.2383 6.5625 22.596 6.5625 22.9689C6.5625 23.2471 6.64498 23.519 6.7995 23.7502C6.95402 23.9815 7.17364 24.1617 7.4306 24.2681C7.68756 24.3746 7.97031 24.4024 8.2431 24.3482C8.51588 24.2939 8.76645 24.16 8.96312 23.9633C9.15979 23.7666 9.29372 23.5161 9.34798 23.2433C9.40224 22.9705 9.37439 22.6877 9.26796 22.4308C9.16152 22.1738 8.98128 21.9542 8.75002 21.7997Z" fill="#81C341"/>
</svg>
