<svg width="20" height="20" viewBox="0 0 20 20" fill="none" xmlns="http://www.w3.org/2000/svg">
<path d="M16.25 3.12549L3.75 3.12549C2.71447 3.12549 1.875 3.96495 1.875 5.00049L1.875 16.2505C1.875 17.286 2.71447 18.1255 3.75 18.1255H16.25C17.2855 18.1255 18.125 17.286 18.125 16.2505L18.125 5.00049C18.125 3.96495 17.2855 3.12549 16.25 3.12549Z" stroke="#1D1D1D" stroke-width="1.5" stroke-linejoin="round"/>
<path d="M11.5625 10.0005C12.0803 10.0005 12.5 9.58076 12.5 9.06299C12.5 8.54522 12.0803 8.12549 11.5625 8.12549C11.0447 8.12549 10.625 8.54522 10.625 9.06299C10.625 9.58076 11.0447 10.0005 11.5625 10.0005Z" fill="#1D1D1D"/>
<path d="M14.6875 10.0005C15.2053 10.0005 15.625 9.58076 15.625 9.06299C15.625 8.54522 15.2053 8.12549 14.6875 8.12549C14.1697 8.12549 13.75 8.54522 13.75 9.06299C13.75 9.58076 14.1697 10.0005 14.6875 10.0005Z" fill="#1D1D1D"/>
<path d="M11.5625 13.1255C12.0803 13.1255 12.5 12.7058 12.5 12.188C12.5 11.6702 12.0803 11.2505 11.5625 11.2505C11.0447 11.2505 10.625 11.6702 10.625 12.188C10.625 12.7058 11.0447 13.1255 11.5625 13.1255Z" fill="#1D1D1D"/>
<path d="M14.6875 13.1255C15.2053 13.1255 15.625 12.7058 15.625 12.188C15.625 11.6702 15.2053 11.2505 14.6875 11.2505C14.1697 11.2505 13.75 11.6702 13.75 12.188C13.75 12.7058 14.1697 13.1255 14.6875 13.1255Z" fill="#1D1D1D"/>
<path d="M5.3125 13.1255C5.83027 13.1255 6.25 12.7058 6.25 12.188C6.25 11.6702 5.83027 11.2505 5.3125 11.2505C4.79473 11.2505 4.375 11.6702 4.375 12.188C4.375 12.7058 4.79473 13.1255 5.3125 13.1255Z" fill="#1D1D1D"/>
<path d="M8.4375 13.1255C8.95527 13.1255 9.375 12.7058 9.375 12.188C9.375 11.6702 8.95527 11.2505 8.4375 11.2505C7.91973 11.2505 7.5 11.6702 7.5 12.188C7.5 12.7058 7.91973 13.1255 8.4375 13.1255Z" fill="#1D1D1D"/>
<path d="M5.3125 16.2505C5.83027 16.2505 6.25 15.8308 6.25 15.313C6.25 14.7952 5.83027 14.3755 5.3125 14.3755C4.79473 14.3755 4.375 14.7952 4.375 15.313C4.375 15.8308 4.79473 16.2505 5.3125 16.2505Z" fill="#1D1D1D"/>
<path d="M8.4375 16.2505C8.95527 16.2505 9.375 15.8308 9.375 15.313C9.375 14.7952 8.95527 14.3755 8.4375 14.3755C7.91973 14.3755 7.5 14.7952 7.5 15.313C7.5 15.8308 7.91973 16.2505 8.4375 16.2505Z" fill="#1D1D1D"/>
<path d="M11.5625 16.2505C12.0803 16.2505 12.5 15.8308 12.5 15.313C12.5 14.7952 12.0803 14.3755 11.5625 14.3755C11.0447 14.3755 10.625 14.7952 10.625 15.313C10.625 15.8308 11.0447 16.2505 11.5625 16.2505Z" fill="#1D1D1D"/>
<path d="M5 1.87549V3.12549" stroke="#1D1D1D" stroke-linecap="round" stroke-linejoin="round"/>
<path d="M15 1.87549V3.12549" stroke="#1D1D1D" stroke-linecap="round" stroke-linejoin="round"/>
<path d="M18.125 6.25049L1.875 6.25049" stroke="#1D1D1D" stroke-linejoin="round"/>
</svg>
