<svg width="20" height="20" viewBox="0 0 20 20" fill="none" xmlns="http://www.w3.org/2000/svg">
<path d="M3.41711 14.8442C3.46398 14.6731 3.36125 14.4353 3.2632 14.2638C3.23281 14.2126 3.19968 14.163 3.16398 14.1153C2.32307 12.84 1.87487 11.346 1.87492 9.81846C1.86086 5.43369 5.49679 1.87549 9.99289 1.87549C13.914 1.87549 17.1874 4.59189 17.9519 8.19775C18.0666 8.73235 18.1246 9.27755 18.1249 9.82432C18.1249 14.2153 14.6292 17.8294 10.1331 17.8294C9.41789 17.8294 8.45343 17.6497 7.92726 17.5024C7.40109 17.3552 6.8757 17.1599 6.74015 17.1075C6.60139 17.0542 6.45403 17.0268 6.30539 17.0267C6.1433 17.0261 5.98277 17.0584 5.83351 17.1216L3.18351 18.0778C3.1256 18.1029 3.06422 18.1189 3.00148 18.1255C2.95185 18.1253 2.90275 18.1153 2.857 18.0961C2.81126 18.0768 2.76979 18.0487 2.73499 18.0133C2.70019 17.978 2.67275 17.936 2.65426 17.89C2.63577 17.8439 2.62659 17.7946 2.62726 17.745C2.63052 17.7015 2.63838 17.6584 2.6507 17.6165L3.41711 14.8442Z" stroke="#1D1D1D" stroke-width="1.5" stroke-miterlimit="10" stroke-linecap="round"/>
<path d="M6.25 11.2505C6.94036 11.2505 7.5 10.6908 7.5 10.0005C7.5 9.31013 6.94036 8.75049 6.25 8.75049C5.55964 8.75049 5 9.31013 5 10.0005C5 10.6908 5.55964 11.2505 6.25 11.2505Z" fill="#1D1D1D"/>
<path d="M10 11.2505C10.6904 11.2505 11.25 10.6908 11.25 10.0005C11.25 9.31013 10.6904 8.75049 10 8.75049C9.30964 8.75049 8.75 9.31013 8.75 10.0005C8.75 10.6908 9.30964 11.2505 10 11.2505Z" fill="#1D1D1D"/>
<path d="M13.75 11.2505C14.4404 11.2505 15 10.6908 15 10.0005C15 9.31013 14.4404 8.75049 13.75 8.75049C13.0596 8.75049 12.5 9.31013 12.5 10.0005C12.5 10.6908 13.0596 11.2505 13.75 11.2505Z" fill="#1D1D1D"/>
</svg>
