<svg width="24" height="24" viewBox="0 0 24 24" fill="none" xmlns="http://www.w3.org/2000/svg">
<path d="M18 10.5005V19.1255C18 19.3717 17.9515 19.6155 17.8573 19.843C17.763 20.0705 17.6249 20.2772 17.4508 20.4513C17.2767 20.6254 17.07 20.7635 16.8425 20.8578C16.615 20.952 16.3712 21.0005 16.125 21.0005H4.875C4.37772 21.0005 3.90081 20.8029 3.54917 20.4513C3.19754 20.0997 3 19.6228 3 19.1255V7.87549C3 7.37821 3.19754 6.90129 3.54917 6.54966C3.90081 6.19803 4.37772 6.00049 4.875 6.00049H12.7256" stroke="#ABABAB" stroke-width="1.5" stroke-linecap="round" stroke-linejoin="round"/>
<path d="M22.2859 1.77734C22.2088 1.69267 22.1154 1.62451 22.0112 1.57697C21.9071 1.52943 21.7944 1.50349 21.6799 1.50073C21.5655 1.49797 21.4517 1.51845 21.3453 1.56091C21.239 1.60338 21.1424 1.66696 21.0614 1.74781L20.4091 2.39691C20.33 2.47602 20.2856 2.58327 20.2856 2.6951C20.2856 2.80693 20.33 2.91419 20.4091 2.99329L21.0071 3.59019C21.0463 3.62957 21.0929 3.66082 21.1442 3.68214C21.1955 3.70346 21.2505 3.71444 21.3061 3.71444C21.3616 3.71444 21.4166 3.70346 21.468 3.68214C21.5193 3.66082 21.5659 3.62957 21.6051 3.59019L22.241 2.95743C22.5627 2.63631 22.5928 2.11323 22.2859 1.77734ZM19.0902 3.71516L9.57065 13.2171C9.51293 13.2746 9.47098 13.3459 9.44883 13.4243L9.0085 14.7357C8.99795 14.7713 8.99721 14.8091 9.00634 14.845C9.01547 14.881 9.03415 14.9139 9.06039 14.9401C9.08664 14.9663 9.11948 14.985 9.15546 14.9942C9.19143 15.0033 9.2292 15.0025 9.26479 14.992L10.5752 14.5517C10.6536 14.5295 10.725 14.4876 10.7825 14.4299L20.2851 4.91002C20.373 4.82117 20.4224 4.70123 20.4224 4.57624C20.4224 4.45125 20.373 4.33131 20.2851 4.24246L19.7604 3.71516C19.6715 3.62645 19.5509 3.57663 19.4253 3.57663C19.2997 3.57663 19.1791 3.62645 19.0902 3.71516Z" fill="#ABABAB"/>
</svg>
