<svg width="20" height="20" viewBox="0 0 20 20" fill="none" xmlns="http://www.w3.org/2000/svg">
<path d="M10 12.5005C11.3807 12.5005 12.5 11.3812 12.5 10.0005C12.5 8.61978 11.3807 7.50049 10 7.50049C8.61929 7.50049 7.5 8.61978 7.5 10.0005C7.5 11.3812 8.61929 12.5005 10 12.5005Z" fill="#ABABAB"/>
<path d="M19.1734 9.3208C18.1398 7.72236 16.7988 6.36455 15.2956 5.39385C13.6328 4.31885 11.7968 3.75049 9.98666 3.75049C8.32572 3.75049 6.69252 4.2251 5.13236 5.16104C3.54135 6.11533 2.09994 7.50947 0.847987 9.30439C0.706653 9.50725 0.628814 9.74754 0.624363 9.99473C0.619912 10.2419 0.689048 10.4849 0.822987 10.6927C1.85463 12.3071 3.18236 13.6669 4.66205 14.6243C6.32806 15.7036 8.12103 16.2505 9.98666 16.2505C11.8113 16.2505 13.6511 15.6868 15.307 14.6208C16.8093 13.6532 18.1476 12.2903 19.1773 10.6786C19.3066 10.4756 19.375 10.2398 19.3743 9.99913C19.3736 9.75846 19.3039 9.52303 19.1734 9.3208ZM9.99994 13.7505C9.25826 13.7505 8.53324 13.5306 7.91655 13.1185C7.29987 12.7064 6.81922 12.1208 6.53539 11.4356C6.25156 10.7503 6.1773 9.99633 6.322 9.2689C6.46669 8.54147 6.82384 7.87328 7.34829 7.34884C7.87274 6.82439 8.54092 6.46724 9.26835 6.32254C9.99578 6.17785 10.7498 6.25211 11.435 6.53594C12.1202 6.81977 12.7059 7.30042 13.118 7.9171C13.53 8.53378 13.7499 9.25881 13.7499 10.0005C13.7488 10.9947 13.3533 11.9479 12.6503 12.6509C11.9473 13.3539 10.9942 13.7494 9.99994 13.7505Z" fill="#ABABAB"/>
</svg>
