<svg width="149" height="62" viewBox="0 0 149 62" fill="none" xmlns="http://www.w3.org/2000/svg">
<path d="M48.1365 31.0156H42.1172V33.1679H48.1365V31.0156Z" fill="#81C341"/>
<path fill-rule="evenodd" clip-rule="evenodd" d="M100.692 33.168H94.6797V35.3202H100.692V33.168ZM59.5276 42.3H64.2786V36.916H68.7143V49.2596H64.2786V45.458H55.4141V36.916H59.5276V42.3ZM75.5386 36.916H83.8596L88.4362 49.2529H83.9603L82.6048 45.458H76.8002L75.4446 49.2529H70.9688L75.5386 36.916ZM78.8737 39.7723L78.0014 42.3H81.4103L80.5379 39.7723H78.8737ZM94.677 44.9283L100.696 36.916H104.81V49.2596H100.696V42.186L95.6836 49.2596H90.8789V36.916H94.677V44.9283ZM42.1135 44.9283V36.916H38V49.2596H43.0463L48.1328 42.186V49.2596H51.931V36.916H48.0657L42.1135 44.9283ZM8.63641 43.0241L13.1056 36.916H17.0983V49.2596H12.9848V42.186L9.60272 47.0403H7.67681L4.11353 42.186V49.2596H0V36.916H4.17393L8.63641 43.0241ZM122.621 45.4577H126.117C126.909 45.4577 127.647 45.2767 128.284 44.9079C128.315 44.8899 128.345 44.8748 128.374 44.8601C128.421 44.8364 128.467 44.8136 128.512 44.7805C128.6 44.7269 128.68 44.6733 128.761 44.6129C128.834 44.5593 128.895 44.5056 128.962 44.4453C129.042 44.3782 129.116 44.3112 129.19 44.2374C129.251 44.1771 129.311 44.11 129.371 44.043C129.384 44.0282 129.396 44.0137 129.408 43.9993L129.438 43.964C129.483 43.9119 129.528 43.8597 129.573 43.8016C129.626 43.7347 129.673 43.661 129.72 43.5874L129.72 43.5871C129.781 43.4999 129.834 43.4127 129.888 43.3189C130.25 42.6819 130.465 41.998 130.465 41.2136C130.465 38.8132 128.512 36.9023 126.117 36.9023H116.219V49.2392H120.97V45.4443H122.621V45.4577ZM120.963 40.0804H124.587C125.211 40.0804 125.714 40.5699 125.714 41.1867C125.714 41.8036 125.211 42.293 124.587 42.293H120.963V40.0804ZM142.157 40.4025L143.505 36.916H148.001L143.432 49.2596H133.889L135.043 46.0949H137.714H140.083L140.955 43.8823H137.627H134.171L131.621 36.916H136.117L137.466 40.4025H142.157ZM112.406 45.7812H108.293V49.2611H112.406V45.7812ZM20.582 49.2529V36.916H34.513V49.2529H20.582ZM24.7023 40.0874V45.7798H30.7149V40.0874H24.7023Z" fill="#1D1D1D"/>
<path fill-rule="evenodd" clip-rule="evenodd" d="M53.5018 61.4708C53.7568 61.1154 53.8843 60.6058 53.8843 59.9555V56.5628C53.8843 56.2678 53.8642 55.9996 53.8239 55.7515C53.7836 55.5035 53.7098 55.2889 53.589 55.1079C53.4682 54.9268 53.3005 54.786 53.079 54.6855C52.8576 54.5849 52.5623 54.5312 52.2 54.5312C51.851 54.5312 51.5625 54.5916 51.3477 54.7056C51.133 54.8196 50.9585 54.9738 50.8377 55.1682C50.7102 55.3559 50.6297 55.5772 50.5827 55.8253C50.5358 56.0734 50.5156 56.3214 50.5156 56.5829V60.1968C50.5156 60.7399 50.6431 61.1757 50.8981 61.5043C51.1531 61.8328 51.5826 62.0004 52.1865 62.0004C52.8106 62.0004 53.2468 61.8261 53.5018 61.4708ZM53.0253 56.0465C53.0455 56.1806 53.0522 56.308 53.0522 56.4354H53.0589V60.0627C53.0589 60.2102 53.0455 60.3511 53.0186 60.4919C52.9918 60.6327 52.9515 60.76 52.8844 60.8673C52.824 60.9746 52.7368 61.0618 52.6227 61.1355C52.5154 61.2026 52.3677 61.2361 52.1932 61.2361C52.0188 61.2361 51.8711 61.2026 51.7638 61.1355C51.6564 61.0685 51.5692 60.988 51.5088 60.8807C51.4417 60.7735 51.4014 60.6662 51.3813 60.5455C51.3611 60.4248 51.3477 60.3175 51.3477 60.2102V56.6634C51.3477 56.5561 51.3477 56.422 51.3611 56.2678C51.3746 56.1069 51.4081 55.9594 51.4618 55.8186C51.5222 55.6778 51.6027 55.5571 51.7168 55.4565C51.8309 55.3559 51.9919 55.3023 52.2 55.3023C52.3879 55.3023 52.5422 55.3425 52.6563 55.4163C52.7704 55.4833 52.8576 55.5772 52.9113 55.6845C52.9717 55.7918 53.0052 55.9124 53.0253 56.0465ZM45.8865 58.3599L46.4636 56.8446H46.524V61.9202H47.3561V54.5918H46.5039L45.6516 56.8245L44.9537 58.6683H44.9202L44.2491 56.8781L43.3768 54.5918H42.5312V61.9202H43.3634V56.8446H43.4036L43.9807 58.3599L44.739 60.1434H45.1282L45.8865 58.3599ZM58.1808 57.6282L59.1337 54.5977H60.0061L58.57 58.8284V61.9327H57.7379V58.8284L56.3086 54.5977H57.181L57.7178 56.3141L58.1338 57.6282H58.1808ZM65.52 54.9939C65.265 54.6855 64.8557 54.5312 64.2853 54.5312C63.9498 54.5312 63.6679 54.5916 63.4398 54.7056C63.225 54.8263 63.0573 54.9805 62.9365 55.1749C62.8157 55.3694 62.7352 55.5906 62.6882 55.8387C62.6412 56.0868 62.6211 56.3416 62.6211 56.603V60.2237C62.6211 60.7869 62.7553 61.2227 63.0304 61.5311C63.2989 61.8395 63.7149 61.9937 64.2719 61.9937C64.8087 61.9937 65.2181 61.8462 65.4865 61.5512C65.7616 61.2562 65.9025 60.8472 65.9159 60.3175L65.0637 60.17C65.0503 60.5321 64.9832 60.8003 64.8557 60.9679C64.7282 61.1355 64.5269 61.2227 64.2517 61.2227C64.084 61.2227 63.9498 61.1825 63.8491 61.1154C63.7485 61.0484 63.6679 60.9612 63.6075 60.8606C63.5471 60.76 63.5069 60.6461 63.4867 60.5254C63.4666 60.4047 63.4532 60.2907 63.4532 60.1834V56.4891C63.4532 56.3617 63.4666 56.2276 63.4867 56.0868C63.5069 55.9527 63.5471 55.8186 63.6075 55.7046C63.6679 55.5906 63.7485 55.4967 63.8558 55.4163C63.9565 55.3425 64.0974 55.3023 64.2652 55.3023C64.5604 55.3023 64.7685 55.3962 64.896 55.5839C65.0167 55.7716 65.0771 56.0331 65.0704 56.355L65.9025 56.2075C65.9025 55.7046 65.775 55.3023 65.52 54.9939ZM71.3881 61.9202V58.5477H69.6837V61.9269H68.8516V54.5918H69.6837V57.8101H71.3881V54.5918H72.2202V61.9202H71.3881ZM77.7999 60.2901L78.1354 61.926H78.9608L77.3771 54.5977H76.5987L75.0352 61.926H75.8337L76.1625 60.2901H77.7999ZM76.6457 57.8026L76.9544 56.0995H76.9946L77.2899 57.7825L77.6455 59.519H76.2967L76.6457 57.8026ZM82.7539 57.6282L83.7068 54.5977H84.5792L83.1431 58.8284V61.9327H82.311V58.8284L80.875 54.5977H81.7474L82.2842 56.3141L82.7003 57.6282H82.7539ZM86.7344 60.9688V61.9267H87.6545V60.9688H86.7344ZM93.3381 61.9269L92.3047 58.7153H91.5196V61.9269H90.6875V54.5918H92.298C92.8885 54.5918 93.3314 54.7661 93.6133 55.1081C93.8951 55.45 94.036 55.973 94.036 56.677C94.036 57.0994 93.9756 57.4682 93.8481 57.79C93.7206 58.1118 93.4724 58.3666 93.0899 58.5409L94.2038 61.9202H93.3381V61.9269ZM93.1838 56.677C93.1838 56.4826 93.1704 56.3015 93.1435 56.1406C93.1167 55.9797 93.0563 55.8389 92.9825 55.7249C92.902 55.6109 92.7946 55.5238 92.6604 55.4567C92.5262 55.3897 92.3517 55.3629 92.1437 55.3629H91.5129V57.9442H92.2175C92.4054 57.9442 92.5664 57.9174 92.6939 57.8571C92.8214 57.7967 92.9221 57.7095 92.9959 57.6023C93.0697 57.4883 93.1234 57.3542 93.1502 57.2C93.1704 57.0391 93.1838 56.8714 93.1838 56.677ZM100.489 59.9548V54.6044V54.5977H99.6498V60.042C99.6498 60.1895 99.6431 60.3303 99.6163 60.4711C99.5895 60.6119 99.5425 60.7393 99.4821 60.8466C99.4217 60.9538 99.3345 61.0477 99.2204 61.1148C99.113 61.1885 98.9654 61.222 98.7909 61.222C98.6097 61.222 98.4688 61.1885 98.3614 61.1215C98.2541 61.0611 98.1668 60.974 98.1064 60.8667C98.046 60.7594 97.9991 60.6521 97.9789 60.5314C97.9588 60.4175 97.9454 60.3035 97.9454 60.1962V54.6044H97.1133V60.1962C97.1133 60.7393 97.2475 61.1751 97.5025 61.5036C97.7642 61.8322 98.1937 61.9998 98.7976 61.9998C99.415 61.9998 99.8512 61.8255 100.106 61.4701C100.361 61.1148 100.489 60.6052 100.489 59.9548Z" fill="#81C341"/>
<path fill-rule="evenodd" clip-rule="evenodd" d="M73.3795 14.6625C73.3795 15.9163 72.3595 16.9421 71.098 16.9421C69.8431 16.9421 68.8164 15.923 68.8164 14.6625C68.8164 13.4019 69.8431 12.3828 71.098 12.3828C72.3528 12.3828 73.3795 13.4019 73.3795 14.6625ZM78.9558 19.5447H84.5524C85.9683 19.5246 87.3037 20.7315 87.042 22.3741L85.6797 29.5684C85.4046 30.829 84.7604 31.4056 83.3378 31.4056L81.224 31.3855C80.9488 31.3855 80.7744 31.533 80.7744 31.8079L80.7542 31.781V32.3912C80.7542 32.8203 80.3717 33.1756 79.9087 33.1756C79.9087 33.1756 63.4814 33.1958 63.4546 33.1756C62.7298 33.0751 60.5892 32.5722 59.7034 30.5205L56.0261 20.3627C55.8919 19.9805 55.9724 19.6721 56.2005 19.6721H57.9386C58.1667 19.6721 58.4687 19.9805 58.6029 20.356L61.428 25.9143V18.7267C61.428 18.2909 61.8038 17.9355 62.2668 17.9355H70.7086C71.1784 17.9355 71.1851 18.0227 70.7355 18.1233L68.2392 18.6932C68.0144 18.7435 67.7174 18.8122 67.4205 18.8809C67.1235 18.9497 66.8266 19.0184 66.6018 19.0687L66.1992 19.1625C65.9075 19.2321 65.6017 19.3017 65.3844 19.3512C65.2667 19.378 65.175 19.3988 65.1255 19.4106C64.9913 19.4441 64.9712 19.8129 65.0785 20.2353L67.7426 30.3663C67.8499 30.782 68.313 31.0435 68.7626 30.9429L76.2783 29.2131C76.7279 29.1125 77.0031 28.6834 76.8957 28.261L75.7616 23.9297C75.6475 23.5073 75.1912 23.2458 74.7416 23.3531L72.4332 23.8827C71.9836 23.9833 71.7018 24.4124 71.8159 24.8348L72.1916 26.2563C72.252 26.4708 72.3795 26.5312 72.554 26.4909C72.5787 26.4839 72.6403 26.469 72.7194 26.4499C72.9416 26.3962 73.3016 26.3092 73.366 26.2697C73.5602 26.1545 73.5239 26.0118 73.4705 25.8021C73.4648 25.7799 73.459 25.757 73.4532 25.7333C73.3995 25.4785 73.3727 25.4785 73.2586 25.5053C73.1633 25.5277 73.1851 25.6251 73.2027 25.7034C73.2061 25.7188 73.2094 25.7335 73.2116 25.7467C73.2251 25.8204 73.1982 25.9076 72.9365 25.9679C72.6228 26.0432 72.5907 25.925 72.5 25.5914C72.4937 25.5682 72.4872 25.544 72.4802 25.5187C72.4728 25.4891 72.4652 25.4601 72.4578 25.4319C72.4184 25.2815 72.3848 25.1531 72.4131 25.0628C72.4534 24.9421 72.554 24.9086 72.554 24.9086C72.554 24.9019 73.9431 24.5599 74.0706 24.5331C74.1981 24.513 74.3524 24.5264 74.4128 24.7343C74.4274 24.7875 74.4454 24.8469 74.4679 24.9209C74.5077 25.0519 74.5614 25.2287 74.6343 25.4986L75.0168 26.9469C75.1241 27.3693 74.849 27.7917 74.3994 27.8989L70.863 28.7236C70.4134 28.8242 69.9503 28.5694 69.843 28.147L68.4338 22.7831C68.3264 22.3674 68.6015 21.9383 69.0511 21.8311L78.8283 19.5782C78.8619 19.5715 78.9021 19.5648 78.9424 19.5648C78.9458 19.5615 78.9474 19.5581 78.9491 19.5548C78.9508 19.5514 78.9525 19.5481 78.9558 19.5447ZM83.2908 29.2734C83.5458 29.2734 83.6733 29.146 83.727 28.8846L85.0221 22.1261C85.0221 21.8646 84.8141 21.65 84.5524 21.65H81.2307C80.969 21.65 80.7542 21.8646 80.7542 22.1261L80.7475 23.1452V29.2734H83.2908Z" fill="#81C341"/>
<path d="M45.4629 29.9505C45.4629 29.9505 41.1346 21.2074 42.6445 18.1902C44.1544 15.1731 49.7375 13.4901 51.9989 9.64826C54.0121 6.2288 50.5897 0 50.5897 0C50.5897 0 53.0055 4.52577 51.8983 7.43567C50.7709 10.4059 43.5504 13.4633 42.0406 16.0782C40.5374 18.6931 42.4432 24.2179 45.4629 29.9505Z" fill="#D9DCEF"/>
</svg>
