<svg width="20" height="20" viewBox="0 0 20 20" fill="none" xmlns="http://www.w3.org/2000/svg">
<path d="M14.375 16.245L14.375 2.81299C14.3743 2.56457 14.2753 2.32653 14.0996 2.15087C13.924 1.97521 13.6859 1.87621 13.4375 1.87549L2.8125 1.87549C2.56408 1.87621 2.32604 1.97521 2.15038 2.15087C1.97473 2.32653 1.87572 2.56457 1.875 2.81299L1.875 16.563C1.87624 16.977 2.04125 17.3737 2.33401 17.6665C2.62677 17.9592 3.02348 18.1243 3.4375 18.1255L16.25 18.1255" stroke="#1D1D1D" stroke-width="1.5" stroke-linejoin="round"/>
<path d="M16.25 18.1255C15.7527 18.1255 15.2758 17.9279 14.9242 17.5763C14.5725 17.2247 14.375 16.7478 14.375 16.2505L14.375 5.00049L17.1875 5.00049C17.4361 5.00049 17.6746 5.09926 17.8504 5.27508C18.0262 5.45089 18.125 5.68935 18.125 5.93799V16.2505C18.125 16.7478 17.9275 17.2247 17.5758 17.5763C17.2242 17.9279 16.7473 18.1255 16.25 18.1255Z" stroke="#1D1D1D" stroke-width="1.5" stroke-linejoin="round"/>
<path d="M9.375 5.00049H11.875" stroke="#1D1D1D" stroke-linecap="round" stroke-linejoin="round"/>
<path d="M9.375 7.50049H11.875" stroke="#1D1D1D" stroke-linecap="round" stroke-linejoin="round"/>
<path d="M4.375 10.0005L11.875 10.0005" stroke="#1D1D1D" stroke-linecap="round" stroke-linejoin="round"/>
<path d="M4.375 12.5005L11.875 12.5005" stroke="#1D1D1D" stroke-linecap="round" stroke-linejoin="round"/>
<path d="M4.375 15.0005L11.875 15.0005" stroke="#1D1D1D" stroke-linecap="round" stroke-linejoin="round"/>
<path d="M6.875 8.12549H4.375C4.20924 8.12549 4.05027 8.05964 3.93306 7.94243C3.81585 7.82522 3.75 7.66625 3.75 7.50049L3.75 5.00049C3.75 4.83473 3.81585 4.67576 3.93306 4.55855C4.05027 4.44134 4.20924 4.37549 4.375 4.37549L6.875 4.37549C7.04076 4.37549 7.19973 4.44134 7.31694 4.55855C7.43415 4.67576 7.5 4.83473 7.5 5.00049V7.50049C7.5 7.66625 7.43415 7.82522 7.31694 7.94243C7.19973 8.05964 7.04076 8.12549 6.875 8.12549Z" fill="#1D1D1D"/>
</svg>
