<svg width="30" height="30" viewBox="0 0 30 30" fill="none" xmlns="http://www.w3.org/2000/svg">
<path d="M25.0592 20.5918C23.5545 18.7502 22.4922 17.8127 22.4922 12.7356C22.4922 8.08618 20.118 6.42974 18.1639 5.62524C17.9044 5.5186 17.66 5.27368 17.5809 5.00708C17.2381 3.84048 16.2772 2.81274 14.9999 2.81274C13.7225 2.81274 12.761 3.84106 12.4217 5.00825C12.3426 5.27778 12.0983 5.5186 11.8387 5.62524C9.88228 6.43091 7.51041 8.08149 7.51041 12.7356C7.50748 17.8127 6.44517 18.7502 4.94049 20.5918C4.31705 21.3547 4.86314 22.5002 5.95357 22.5002H24.052C25.1366 22.5002 25.6792 21.3512 25.0592 20.5918Z" stroke="#1D1D1D" stroke-width="2" stroke-linecap="round" stroke-linejoin="round"/>
<path d="M18.75 22.5002V23.4377C18.75 24.4323 18.3549 25.3861 17.6516 26.0894C16.9484 26.7927 15.9946 27.1877 15 27.1877C14.0054 27.1877 13.0516 26.7927 12.3483 26.0894C11.6451 25.3861 11.25 24.4323 11.25 23.4377V22.5002" stroke="#1D1D1D" stroke-width="2" stroke-linecap="round" stroke-linejoin="round"/>
</svg>
