<svg width="28" height="28" viewBox="0 0 28 28" fill="none" xmlns="http://www.w3.org/2000/svg">
<path d="M24.6643 20.4532C23.7958 19.5782 21.6925 18.3013 20.6721 17.7867C19.3432 17.1173 19.2338 17.0626 18.1893 17.8386C17.4925 18.3565 17.0293 18.8192 16.2139 18.6452C15.3986 18.4713 13.6267 17.4908 12.0752 15.9442C10.5237 14.3977 9.48629 12.5744 9.31183 11.7617C9.13738 10.9491 9.60769 10.4913 10.1207 9.79298C10.8436 8.80861 10.7889 8.64455 10.171 7.31564C9.68918 6.28205 8.37504 4.19845 7.49675 3.33439C6.55722 2.40634 6.55722 2.57041 5.95183 2.82197C5.45897 3.02934 4.98614 3.2814 4.53925 3.57501C3.66425 4.15634 3.17863 4.63923 2.83902 5.36494C2.49941 6.09064 2.34683 7.79197 4.10066 10.9781C5.85449 14.1642 7.08496 15.7933 9.63175 18.333C12.1786 20.8727 14.1369 22.2382 16.9998 23.8438C20.5414 25.8274 21.8998 25.4407 22.6277 25.1017C23.3556 24.7626 23.8407 24.2813 24.4231 23.4063C24.7175 22.9602 24.9701 22.4879 25.1778 21.9954C25.4299 21.3922 25.5939 21.3922 24.6643 20.4532Z" stroke="#1D1D1D" stroke-width="2" stroke-miterlimit="10"/>
</svg>
