<svg width="20" height="20" viewBox="0 0 20 20" fill="none" xmlns="http://www.w3.org/2000/svg">
<path d="M16.25 3.12549L3.75 3.12549C2.71447 3.12549 1.875 3.96495 1.875 5.00049L1.875 15.0005C1.875 16.036 2.71447 16.8755 3.75 16.8755H16.25C17.2855 16.8755 18.125 16.036 18.125 15.0005L18.125 5.00049C18.125 3.96495 17.2855 3.12549 16.25 3.12549Z" stroke="#1D1D1D" stroke-width="1.5" stroke-linejoin="round"/>
<path d="M13.125 8.12549C13.8154 8.12549 14.375 7.56584 14.375 6.87549C14.375 6.18513 13.8154 5.62549 13.125 5.62549C12.4346 5.62549 11.875 6.18513 11.875 6.87549C11.875 7.56584 12.4346 8.12549 13.125 8.12549Z" stroke="#1D1D1D" stroke-width="1.5" stroke-miterlimit="10"/>
<path d="M11.875 13.1173L8.33359 9.58257C8.10824 9.35727 7.80535 9.22654 7.48684 9.2171C7.16832 9.20766 6.85822 9.32023 6.61992 9.53179L1.875 13.7505M8.75 16.8755L13.568 12.0576C13.7883 11.8368 14.0832 11.7064 14.3948 11.6919C14.7064 11.6775 15.0121 11.78 15.252 11.9794L18.125 14.3755" stroke="#1D1D1D" stroke-width="1.5" stroke-linecap="round" stroke-linejoin="round"/>
</svg>
