<svg width="16" height="18" viewBox="0 0 16 18" fill="none" xmlns="http://www.w3.org/2000/svg">
<path d="M7.72502 3.63801L12.5375 6.38801M9.23752 10.788L10.75 13.6755C10.75 13.6755 10.75 13.6755 10.75 13.813L9.78752 15.463L9.65002 15.6005H9.51253L5.80002 13.4005L4.15002 16.288L3.73752 16.563V16.013L5.2511 13.1255L1.53752 10.788L1.40002 10.6505V10.513L2.36252 8.86301L5.52502 8.72551L8.27502 4.05051L6.76252 3.08801L7.72502 1.43801C7.86252 1.16301 8.13752 1.02551 8.41252 0.888009C8.68752 0.750509 8.96252 0.888009 9.23752 1.02551L14.05 3.77551C14.325 3.91301 14.4625 4.18801 14.6 4.46301C14.7375 4.73801 14.6 5.01301 14.4625 5.28801L13.5 6.93801L11.85 5.97551L9.23752 10.788Z" stroke="white" stroke-width="1.5"/>
</svg>
