<svg width="16" height="16" viewBox="0 0 18 18" fill="none" xmlns="http://www.w3.org/2000/svg">
<path d="M9.62494 17.1255C9.54146 17.1255 9.45883 17.1088 9.38191 17.0764C9.30499 17.044 9.23535 16.9965 9.17709 16.9367C9.11884 16.8769 9.07315 16.8061 9.04272 16.7283C9.01229 16.6506 8.99775 16.5675 8.99994 16.4841V9.31808C8.99994 9.2352 8.96701 9.15572 8.90841 9.09711C8.8498 9.03851 8.77032 9.00558 8.68744 9.00558H1.51595C1.3845 9.00714 1.25578 8.968 1.14745 8.89351C1.03912 8.81903 0.956486 8.71287 0.910874 8.58957C0.858931 8.44253 0.863832 8.28139 0.924615 8.13778C0.985398 7.99417 1.09767 7.87847 1.23939 7.8134L16.2394 0.932537C16.3553 0.879438 16.4846 0.863044 16.6101 0.885555C16.7356 0.908066 16.8512 0.968405 16.9414 1.05848C17.0316 1.14855 17.0921 1.26405 17.1148 1.38949C17.1374 1.51493 17.1212 1.64431 17.0683 1.76027L10.1933 16.7603C10.1435 16.8692 10.0635 16.9616 9.96272 17.0263C9.86196 17.0911 9.74471 17.1255 9.62494 17.1255Z" fill="#81C341"/>
</svg>
