<svg width="20" height="20" viewBox="0 0 20 20" fill="none" xmlns="http://www.w3.org/2000/svg">
<path d="M12.5001 5.70361C12.5001 5.70361 13.4516 5.23486 10.0001 5.23486C8.76393 5.23486 7.55556 5.60142 6.52775 6.28818C5.49994 6.97494 4.69886 7.95105 4.22582 9.09309C3.75277 10.2351 3.629 11.4918 3.87016 12.7042C4.11131 13.9166 4.70657 15.0302 5.58065 15.9043C6.45472 16.7784 7.56837 17.3736 8.78075 17.6148C9.99313 17.8559 11.2498 17.7322 12.3918 17.2591C13.5339 16.7861 14.51 15.985 15.1967 14.9572C15.8835 13.9294 16.2501 12.721 16.2501 11.4849" stroke="#1D1D1D" stroke-width="1.5" stroke-miterlimit="10" stroke-linecap="round"/>
<path d="M10 2.26611L13.125 5.39111L10 8.51611" stroke="#1D1D1D" stroke-width="1.5" stroke-linecap="round" stroke-linejoin="round"/>
</svg>
