<svg width="32" height="32" viewBox="0 0 32 32" fill="none" xmlns="http://www.w3.org/2000/svg">
<path d="M16.1812 3.00023C8.86993 2.90148 2.90118 8.87023 2.99993 16.1815C3.09743 23.1934 8.8068 28.9027 15.8187 29.0002C23.1312 29.1002 29.0987 23.1315 28.9987 15.8202C28.9024 8.80711 23.1931 3.09773 16.1812 3.00023ZM24.0824 23.4534C24.0575 23.4803 24.027 23.5014 23.993 23.5152C23.9591 23.529 23.9225 23.5352 23.8859 23.5333C23.8492 23.5314 23.8135 23.5214 23.7811 23.5042C23.7488 23.4869 23.7206 23.4627 23.6987 23.4334C23.1396 22.7019 22.455 22.0757 21.6768 21.584C20.0855 20.5627 18.0693 20.0002 15.9999 20.0002C13.9306 20.0002 11.9143 20.5627 10.3231 21.584C9.54485 22.0755 8.86023 22.7015 8.30118 23.4327C8.27921 23.4621 8.25106 23.4863 8.21871 23.5035C8.18636 23.5208 8.15061 23.5308 8.11399 23.5327C8.07737 23.5346 8.04078 23.5284 8.00681 23.5146C7.97284 23.5008 7.94232 23.4797 7.91743 23.4527C6.08347 21.473 5.04461 18.886 4.99993 16.1877C4.89805 10.1059 9.88868 5.01523 15.9731 5.00023C22.0574 4.98523 26.9999 9.92586 26.9999 16.0002C27.002 18.7636 25.9599 21.4257 24.0824 23.4534V23.4534Z" fill="#1D1D1D"/>
<path d="M16 9.00024C14.7675 9.00024 13.6532 9.46212 12.8613 10.3015C12.0694 11.1409 11.6738 12.3015 11.7632 13.5471C11.9444 16.0002 13.845 18.0002 16 18.0002C18.155 18.0002 20.0519 16.0002 20.2369 13.5477C20.3294 12.314 19.9369 11.164 19.1319 10.309C18.3369 9.46524 17.2244 9.00024 16 9.00024Z" fill="#1D1D1D"/>
</svg>
