<svg width="31" height="26" viewBox="0 0 31 26" fill="none" xmlns="http://www.w3.org/2000/svg">
<path d="M1 1.59473H5.62852L9.09991 18.7037H27.614M8.9969 14.9031H26.8769C27.0095 14.9032 27.1381 14.8575 27.2407 14.774C27.3432 14.6904 27.4135 14.574 27.4396 14.4447L29.504 4.17929C29.5206 4.09652 29.5186 4.0111 29.498 3.92919C29.4775 3.84729 29.4389 3.77095 29.385 3.70568C29.3312 3.64042 29.2635 3.58785 29.1867 3.55177C29.11 3.51569 29.0262 3.49701 28.9413 3.49707H6.70312M12.4049 23.4554C12.4049 23.9803 11.9794 24.4059 11.4544 24.4059C10.9295 24.4059 10.5039 23.9803 10.5039 23.4554C10.5039 22.9304 10.9295 22.5049 11.4544 22.5049C11.9794 22.5049 12.4049 22.9304 12.4049 23.4554ZM27.6158 23.4554C27.6158 23.9803 27.1903 24.4059 26.6653 24.4059C26.1404 24.4059 25.7148 23.9803 25.7148 23.4554C25.7148 22.9304 26.1404 22.5049 26.6653 22.5049C27.1903 22.5049 27.6158 22.9304 27.6158 23.4554Z" stroke="#1D1D1D" stroke-width="2" stroke-linecap="round" stroke-linejoin="round"/>
</svg>
