<svg width="30" height="30" viewBox="0 0 30 30" fill="none" xmlns="http://www.w3.org/2000/svg">
<path d="M15 2.81274C8.26934 2.81274 2.8125 8.26958 2.8125 15.0002C2.8125 21.7309 8.26934 27.1877 15 27.1877C21.7307 27.1877 27.1875 21.7309 27.1875 15.0002C27.1875 8.26958 21.7307 2.81274 15 2.81274Z" stroke="black" stroke-width="1.5" stroke-miterlimit="10"/>
<path d="M15 2.81274C11.5975 2.81274 8.39825 8.26958 8.39825 15.0002C8.39825 21.7309 11.5975 27.1877 15 27.1877C18.4026 27.1877 21.6018 21.7309 21.6018 15.0002C21.6018 8.26958 18.4026 2.81274 15 2.81274Z" stroke="black" stroke-width="1.5" stroke-miterlimit="10"/>
<path d="M6.87482 6.875C9.11544 8.46582 11.9361 9.41445 15 9.41445C18.0639 9.41445 20.8846 8.46582 23.1252 6.875M23.1252 23.1254C20.8846 21.5346 18.0639 20.5859 15 20.5859C11.9361 20.5859 9.11544 21.5346 6.87482 23.1254" stroke="black" stroke-width="1.5" stroke-linecap="round" stroke-linejoin="round"/>
<path d="M15 2.81274V27.1877M27.1875 15.0002H2.8125" stroke="black" stroke-width="1.5" stroke-miterlimit="10"/>
</svg>
