<svg width="18" height="12" viewBox="0 0 18 12" fill="none" xmlns="http://www.w3.org/2000/svg">
<path d="M16.9941 2.00295C16.8025 1.28795 16.24 0.723787 15.5258 0.531287C14.2208 0.172954 8.99997 0.167121 8.99997 0.167121C8.99997 0.167121 3.77997 0.161287 2.47414 0.503787C1.77414 0.69462 1.1958 1.27129 1.00247 1.98545C0.658303 3.29045 0.654969 5.99712 0.654969 5.99712C0.654969 5.99712 0.651636 8.71712 0.993303 10.0088C1.18497 10.723 1.74747 11.2871 2.46247 11.4796C3.7808 11.838 8.98747 11.8438 8.98747 11.8438C8.98747 11.8438 14.2083 11.8496 15.5133 11.508C16.2266 11.3163 16.7916 10.753 16.9858 10.0388C17.3308 8.73462 17.3333 6.02879 17.3333 6.02879C17.3333 6.02879 17.35 3.30795 16.9941 2.00295ZM7.32997 8.50462L7.33414 3.50462L11.6733 6.00879L7.32997 8.50462Z" fill="#ABABAB"/>
</svg>
